REM DIRINDEX 1\2\6,1\2\7,1\2\8,1\2\9,1\3\10,1\3\11,1\4\12,1\4\13,1\4\14,1\5\15,1\5\16,1\5\17
REM DIRNAME cjc029,folder01,folder02,folder03,folder04,folder05,folder06,folder07,folder08,folder09,folder10,folder11,folder12,folder13,folder14,folder15,folder16
TITLE ""
FILE "1400_3_sec07_0601_0615.mp3" MP3
  TRACK 01 AUDIO
    TITLE "0:"
    INDEX 01 00:00:00
  TRACK 02 AUDIO
    TITLE "15:cjc029_5633"
    INDEX 01 00:00:17
  TRACK 03 AUDIO
    TITLE "0:"
    INDEX 01 00:05:03
  TRACK 04 AUDIO
    TITLE "15:cjc029_5634"
    INDEX 01 00:05:56
  TRACK 05 AUDIO
    TITLE "0:"
    INDEX 01 00:07:19
  TRACK 06 AUDIO
    TITLE "17:cjc029_5635"
    INDEX 01 00:08:21
  TRACK 07 AUDIO
    TITLE "0:"
    INDEX 01 00:09:40
  TRACK 08 AUDIO
    TITLE "16:cjc029_5636"
    INDEX 01 00:09:51
  TRACK 09 AUDIO
    TITLE "0:"
    INDEX 01 00:10:61
  TRACK 10 AUDIO
    TITLE "17:cjc029_5637"
    INDEX 01 00:11:48
  TRACK 11 AUDIO
    TITLE "0:"
    INDEX 01 00:13:04
  TRACK 12 AUDIO
    TITLE "16:cjc029_5638"
    INDEX 01 00:13:08
  TRACK 13 AUDIO
    TITLE "0:"
    INDEX 01 00:14:13
  TRACK 14 AUDIO
    TITLE "17:cjc029_5639"
    INDEX 01 00:14:74
  TRACK 15 AUDIO
    TITLE "0:"
    INDEX 01 00:17:51
  TRACK 16 AUDIO
    TITLE "16:cjc029_5640"
    INDEX 01 00:17:55
  TRACK 17 AUDIO
    TITLE "0:"
    INDEX 01 00:18:60
  TRACK 18 AUDIO
    TITLE "17:cjc029_5641"
    INDEX 01 00:19:44
  TRACK 19 AUDIO
    TITLE "0:"
    INDEX 01 00:20:65
  TRACK 20 AUDIO
    TITLE "16:cjc029_5642"
    INDEX 01 00:20:71
  TRACK 21 AUDIO
    TITLE "0:"
    INDEX 01 00:22:05
  TRACK 22 AUDIO
    TITLE "17:cjc029_5643"
    INDEX 01 00:22:62
  TRACK 23 AUDIO
    TITLE "0:"
    INDEX 01 00:24:10
  TRACK 24 AUDIO
    TITLE "16:cjc029_5644"
    INDEX 01 00:24:18
  TRACK 25 AUDIO
    TITLE "0:"
    INDEX 01 00:25:37
  TRACK 26 AUDIO
    TITLE "17:cjc029_5645"
    INDEX 01 00:26:20
  TRACK 27 AUDIO
    TITLE "0:"
    INDEX 01 00:27:22
  TRACK 28 AUDIO
    TITLE "16:cjc029_5646"
    INDEX 01 00:27:28
  TRACK 29 AUDIO
    TITLE "0:"
    INDEX 01 00:28:53
  TRACK 30 AUDIO
    TITLE "17:cjc029_5647"
    INDEX 01 00:29:40
  TRACK 31 AUDIO
    TITLE "0:"
    INDEX 01 00:30:69
  TRACK 32 AUDIO
    TITLE "16:cjc029_5648"
    INDEX 01 00:30:73
  TRACK 33 AUDIO
    TITLE "0:"
    INDEX 01 00:32:23
  TRACK 34 AUDIO
    TITLE "17:cjc029_5649"
    INDEX 01 00:33:07
  TRACK 35 AUDIO
    TITLE "0:"
    INDEX 01 00:34:34
  TRACK 36 AUDIO
    TITLE "16:cjc029_5650"
    INDEX 01 00:34:42
  TRACK 37 AUDIO
    TITLE "0:"
    INDEX 01 00:35:59
  TRACK 38 AUDIO
    TITLE "17:cjc029_5651"
    INDEX 01 00:36:46
  TRACK 39 AUDIO
    TITLE "0:"
    INDEX 01 00:37:65
  TRACK 40 AUDIO
    TITLE "16:cjc029_5652"
    INDEX 01 00:38:06
  TRACK 41 AUDIO
    TITLE "0:"
    INDEX 01 00:39:17
  TRACK 42 AUDIO
    TITLE "17:cjc029_5653"
    INDEX 01 00:40:01
  TRACK 43 AUDIO
    TITLE "0:"
    INDEX 01 00:41:38
  TRACK 44 AUDIO
    TITLE "16:cjc029_5654"
    INDEX 01 00:41:44
  TRACK 45 AUDIO
    TITLE "0:"
    INDEX 01 00:42:66
  TRACK 46 AUDIO
    TITLE "17:cjc029_5655"
    INDEX 01 00:43:52
  TRACK 47 AUDIO
    TITLE "0:"
    INDEX 01 00:45:20
  TRACK 48 AUDIO
    TITLE "16:cjc029_5656"
    INDEX 01 00:45:26
  TRACK 49 AUDIO
    TITLE "0:"
    INDEX 01 00:46:56
  TRACK 50 AUDIO
    TITLE "17:cjc029_5657"
    INDEX 01 00:47:40
  TRACK 51 AUDIO
    TITLE "0:"
    INDEX 01 00:49:12
  TRACK 52 AUDIO
    TITLE "16:cjc029_5658"
    INDEX 01 00:49:20
  TRACK 53 AUDIO
    TITLE "0:"
    INDEX 01 00:50:29
  TRACK 54 AUDIO
    TITLE "17:cjc029_5659"
    INDEX 01 00:51:13
  TRACK 55 AUDIO
    TITLE "0:"
    INDEX 01 00:52:43
  TRACK 56 AUDIO
    TITLE "16:cjc029_5660"
    INDEX 01 00:52:49
  TRACK 57 AUDIO
    TITLE "0:"
    INDEX 01 00:53:68
  TRACK 58 AUDIO
    TITLE "17:cjc029_5661"
    INDEX 01 00:54:56
  TRACK 59 AUDIO
    TITLE "0:"
    INDEX 01 00:56:57
  TRACK 60 AUDIO
    TITLE "16:cjc029_5662"
    INDEX 01 00:56:63
  TRACK 61 AUDIO
    TITLE "0:"
    INDEX 01 00:57:66
  TRACK 62 AUDIO
    TITLE "17:cjc029_5663"
    INDEX 01 00:58:48
  TRACK 63 AUDIO
    TITLE "0:"
    INDEX 01 01:00:00
  TRACK 64 AUDIO
    TITLE "16:cjc029_5664"
    INDEX 01 01:00:08
  TRACK 65 AUDIO
    TITLE "0:"
    INDEX 01 01:01:15
